<svg width="16" height="16" fill="none" xmlns="http://www.w3.org/2000/svg"><path d="M13.052 15.92h-.017c-2.705-.089-5.875-2.711-8.059-4.897C2.79 8.838.166 5.667.082 2.973.052 2.03 2.37.349 2.394.332c.602-.419 1.27-.27 1.544.11a247.2 247.2 0 012.135 3.223c.198.314.169.78-.079 1.249a75.3 75.3 0 01-.801 1.427c.229.327.835 1.127 2.087 2.378 1.252 1.252 2.051 1.86 2.379 2.089a75.846 75.846 0 011.427-.802c.461-.245.926-.276 1.242-.081.323.198 2.98 1.964 3.225 2.134.205.145.337.393.364.68.025.292-.065.6-.252.869-.015.022-1.676 2.313-2.613 2.313z" fill="#BFAA86"/></svg>