<svg width="15" height="15" fill="none" xmlns="http://www.w3.org/2000/svg"><g clip-path="url(#clip0)"><path d="M7.5.21C3.358.21 0 3.447 0 7.44c0 3.992 3.358 7.229 7.5 7.229 4.142 0 7.5-3.237 7.5-7.23C15 3.447 11.642.21 7.5.21z" fill="#40B3E0"/><path d="M11.15 4.369l-1.34 6.51s-.187.451-.703.235l-3.09-2.285-1.125-.524L3 7.691s-.29-.099-.319-.316c-.028-.216.328-.334.328-.334l7.522-2.844s.618-.262.618.172" fill="#fff"/><path d="M5.778 10.806s-.09-.009-.203-.352a556.79 556.79 0 01-.683-2.149l4.543-2.78s.262-.154.253 0c0 0 .047.026-.094.153-.14.126-3.569 3.097-3.569 3.097" fill="#D2E5F1"/><path d="M7.201 9.705l-1.223 1.074s-.095.07-.2.027l.234-1.996" fill="#B5CFE4"/></g><defs><clipPath id="clip0"><path fill="#fff" transform="translate(0 .21)" d="M0 0h15v14.459H0z"/></clipPath></defs></svg>