<svg width="15" height="15" fill="none" xmlns="http://www.w3.org/2000/svg"><g clip-path="url(#clip0)"><path d="M4.5 12.132l-1.634-1.178C2.3 9.868 1.496 7.736 1.5 6.475 1.5 2.525 4.917.21 8.501.21c1.74 0 3.373.745 4.598 2.1 1.227 1.353 1.904 3.153 1.9 5.067 0 3.951-2.073 4.755-5.657 4.755l-.84 1.09C7.634 9.45 5.952 14.76 5 14.188l-.5-2.055z" fill="#fff"/><path d="M7.742.211C6.54.227 3.95.417 2.502 1.696c-1.075 1.03-1.45 2.55-1.494 4.43-.038 1.873-.081 5.392 3.437 6.35v1.458s-.023.585.377.705c.493.15.775-.3 1.243-.783l.875-.951c2.407.192 4.25-.253 4.463-.32.487-.15 3.238-.488 3.688-4.007.463-3.633-.225-5.922-1.462-6.958l-.007-.002c-.375-.33-1.875-1.385-5.231-1.397 0 0-.247-.015-.649-.01zm.042 1.022c.34-.001.55.013.55.013 2.838.006 4.194.83 4.513 1.108 1.044.86 1.58 2.925 1.188 5.96-.375 2.94-2.607 3.126-3.019 3.253-.175.054-1.8.44-3.845.313 0 0-1.524 1.772-2 2.23-.074.078-.162.102-.218.09-.081-.018-.106-.115-.1-.247l.012-2.421C1.884 10.736 2.06 7.735 2.09 6.169c.037-1.567.344-2.851 1.25-3.719 1.223-1.066 3.422-1.21 4.444-1.217zM8.01 2.8a.193.193 0 00-.132.052.18.18 0 00-.055.128c0 .048.02.094.055.128a.191.191 0 00.132.053c.465-.009.927.071 1.359.236.432.164.826.41 1.16.722.681.638 1.013 1.494 1.025 2.614a.176.176 0 00.055.128.188.188 0 00.133.053v-.006c.05 0 .097-.019.133-.052a.177.177 0 00.054-.128 3.76 3.76 0 00-.26-1.546 3.873 3.873 0 00-.87-1.322c-.745-.699-1.683-1.06-2.79-1.06h.001zm-2.471.416a.616.616 0 00-.384.072h-.008a2.946 2.946 0 00-.717.566c-.17.193-.264.385-.289.572a.721.721 0 00.032.326l.012.006a8.13 8.13 0 00.75 1.566 9.292 9.292 0 001.45 1.91l.019.025.025.018.019.018.018.018a9.742 9.742 0 001.988 1.403c.825.434 1.326.64 1.626.723v.006a.921.921 0 00.249.037 1.17 1.17 0 00.689-.285 2.72 2.72 0 00.58-.691V9.5c.145-.26.095-.507-.112-.676a8.522 8.522 0 00-1.343-.928c-.32-.168-.644-.066-.775.103l-.282.343c-.143.168-.406.144-.406.144l-.007.006c-1.95-.482-2.47-2.385-2.47-2.385s-.024-.259.157-.391l.35-.271a.583.583 0 00.106-.754 8.16 8.16 0 00-.962-1.295.53.53 0 00-.315-.18zm2.796.536a.19.19 0 00-.133.053.177.177 0 00.001.256.191.191 0 00.133.052c.625.01 1.22.26 1.656.693a2.1 2.1 0 01.444.72c.096.265.137.547.118.828 0 .048.02.094.056.128a.19.19 0 00.132.052l.006.008a.194.194 0 00.133-.054.18.18 0 00.055-.128c.018-.717-.213-1.32-.669-1.801-.456-.482-1.094-.753-1.906-.807h-.026zm.306.975a.197.197 0 00-.137.05.184.184 0 00-.06.129.178.178 0 00.052.131.191.191 0 00.134.058c.618.03.918.331.956.952a.178.178 0 00.057.124c.035.033.082.05.13.05h.007a.193.193 0 00.133-.059.18.18 0 00.048-.133c-.044-.807-.5-1.26-1.313-1.302H8.64z" fill="#8074D6"/></g><defs><clipPath id="clip0"><path fill="#fff" transform="translate(0 .21)" d="M0 0h15v14.459H0z"/></clipPath></defs></svg>