<svg width="15" height="15" fill="none" xmlns="http://www.w3.org/2000/svg"><g clip-path="url(#clip0)"><path d="M3.957 11.777l-2.897-.82a6.916 6.916 0 01-.996-3.581C.064 3.423 3.416.21 7.534.21c1.998 0 3.874.746 5.282 2.1 1.41 1.354 2.188 3.155 2.184 5.07 0 3.951-3.352 7.165-7.47 7.165h-.003c-1.247 0-2.475-.3-3.57-.873v-1.895zm.186.596l.226.13a6.423 6.423 0 003.158.832h.003c3.42 0-3.573-2.674-3.573-5.96 0-1.59 9.134-3.082 7.963-4.21C10.75 2.039 10.159 9.85 8.5 9.85 5.077 9.849 6 4.09 6 7.376 6 8.5 9.877 5.045 10.5 5.993l-8.083 4.778-.627 2.196 2.353-.594z" fill="#fff"/><path d="M9.802.21H5.197C.995.21-.001 1.17-.001 5.22v4.44c0 4.05.996 5.01 5.198 5.01h4.605c4.201 0 5.197-.96 5.197-5.01V5.22C15 1.17 13.994.21 9.802.21zm2.307 10.314h-1.09c-.412 0-.539-.315-1.28-1.04-.645-.602-.93-.682-1.09-.682-.224 0-.288.061-.288.358v.948c0 .255-.083.407-.781.407-1.155 0-2.437-.673-3.336-1.927C2.89 6.75 2.52 5.373 2.52 5.088c0-.153.063-.296.368-.296h1.091c.276 0 .381.122.489.407.54 1.502 1.438 2.817 1.809 2.817.136 0 .2-.061.2-.398v-1.55c-.042-.716-.432-.777-.432-1.031 0-.123.105-.245.273-.245h1.716c.232 0 .317.122.317.386V7.27c0 .226.105.306.169.306.136 0 .254-.08.507-.325.784-.847 1.345-2.154 1.345-2.154a.481.481 0 01.477-.296h1.091c.327 0 .4.162.327.388-.137.612-1.472 2.429-1.472 2.429-.115.183-.159.263 0 .468.117.153.498.47.752.755.466.51.825.94.92 1.236.108.294-.05.447-.359.447h.002z" fill="#4872A3"/></g><defs><clipPath id="clip0"><path fill="#fff" transform="translate(0 .21)" d="M0 0h15v14.459H0z"/></clipPath></defs></svg>