<svg width="15" height="15" fill="none" xmlns="http://www.w3.org/2000/svg"><path d="M1 14l.92-3.338a6.419 6.419 0 01-.865-3.22C1.055 3.89 3.96 1 7.527 1c1.733 0 3.357.672 4.58 1.888A6.388 6.388 0 0114 7.446c0 3.552-2.907 6.442-6.473 6.442h-.003a6.5 6.5 0 01-3.093-.784L1 14z" fill="url(#paint0_linear)"/><path d="M0 15l1.06-3.85a7.378 7.378 0 01-.996-3.716C.064 3.334 3.416 0 7.534 0a7.43 7.43 0 015.282 2.178A7.356 7.356 0 0115 7.438c0 4.1-3.352 7.434-7.47 7.434h-.003a7.499 7.499 0 01-3.57-.906L0 15zm4.143-2.382l.226.136a6.248 6.248 0 003.158.863h.003c3.42 0 6.206-2.77 6.206-6.18 0-1.65-.645-3.201-1.816-4.37a6.172 6.172 0 00-4.39-1.812c-3.423 0-6.209 2.77-6.209 6.179 0 1.166.326 2.303.95 3.287l.146.236-.627 2.278 2.353-.617z" fill="#fff"/><path d="M5.778 4.324c-.128-.31-.264-.317-.386-.32C5.292 4 5.177 4 5.062 4a.61.61 0 00-.46.232C4.443 4.417 4 4.866 4 5.782c0 .911.618 1.795.704 1.92.086.124 1.193 2.058 2.942 2.803 1.455.62 1.752.495 2.066.463.318-.032 1.018-.449 1.164-.883.142-.435.142-.806.099-.884-.043-.078-.159-.125-.33-.217-.172-.093-1.019-.542-1.177-.606-.16-.064-.275-.092-.387.093-.116.185-.446.602-.546.727-.099.124-.201.138-.373.046-.172-.093-.727-.289-1.385-.923a5.514 5.514 0 01-.959-1.286c-.1-.185-.01-.285.076-.377.076-.082.172-.218.258-.325.086-.106.116-.185.172-.31A.367.367 0 006.31 5.7c-.043-.092-.38-1.008-.533-1.375z" fill="#fff"/><defs><linearGradient id="paint0_linear" x1="7.5" y1="13.999" x2="7.5" y2=".999" gradientUnits="userSpaceOnUse"><stop stop-color="#20B038"/><stop offset="1" stop-color="#60D66A"/></linearGradient></defs></svg>